<?xml version="1.0" encoding="UTF-8"?>
<!DOCTYPE svg PUBLIC "-//W3C//DTD SVG 1.1//EN" "http://www.w3.org/Graphics/SVG/1.1/DTD/svg11.dtd">
<!-- Creator: CorelDRAW -->
<svg xmlns="http://www.w3.org/2000/svg" xml:space="preserve" width="220px" height="263px" version="1.1" style="shape-rendering:geometricPrecision; text-rendering:geometricPrecision; image-rendering:optimizeQuality; fill-rule:evenodd; clip-rule:evenodd"
viewBox="0 0 262.72 313.34"
 xmlns:xlink="http://www.w3.org/1999/xlink"
 xmlns:xodm="http://www.corel.com/coreldraw/odm/2003">
 <defs>
  <style type="text/css">
   <![CDATA[
    .str0 {stroke:#29CC39;stroke-width:13.16;stroke-linecap:round;stroke-linejoin:round;stroke-miterlimit:22.9256}
    .fil0 {fill:none}
   ]]>
  </style>
 </defs>
 <g id="Layer_x0020_1">
  <metadata id="CorelCorpID_0Corel-Layer"/>
  <g id="_2116793520">
   <path class="fil0 str0" d="M70.09 182.33c-14.33,-38.9 -20.59,-81.84 -19.32,-128.55 1.42,-25.52 10.37,-36.68 42.1,-42.41 33.62,-5.05 72.3,-6.37 103.62,-2.71 35.22,3.95 56.53,21.99 57.76,44.26 2.06,37.35 2.93,74.57 0.03,111.85 -6.08,52.25 -30.17,80.88 -71.61,86.76 -66.2,7.35 -110.33,-3.16 -135.25,-29.2 -22.92,-23.71 -36.19,-53.51 -40.75,-88.79 -1.56,-23.87 14.93,-38.43 45.11,-37.36"/>
   <path class="fil0 str0" d="M85.13 245.44c-3.21,37.28 7.22,59.34 36.14,60.81l66.97 0.52c21.76,-0.74 32.74,-6.55 37.87,-26.52 3.51,-17.15 4.31,-34.31 2.76,-51.46"/>
  </g>
 </g>
</svg>
