<?xml version="1.0" encoding="UTF-8"?>
<!DOCTYPE svg PUBLIC "-//W3C//DTD SVG 1.1//EN" "http://www.w3.org/Graphics/SVG/1.1/DTD/svg11.dtd">
<!-- Creator: CorelDRAW -->
<svg xmlns="http://www.w3.org/2000/svg" xml:space="preserve" width="294px" height="254px" version="1.1" style="shape-rendering:geometricPrecision; text-rendering:geometricPrecision; image-rendering:optimizeQuality; fill-rule:evenodd; clip-rule:evenodd"
viewBox="0 0 141.92 122.72"
 xmlns:xlink="http://www.w3.org/1999/xlink"
 xmlns:xodm="http://www.corel.com/coreldraw/odm/2003">
 <defs>
  <style type="text/css">
   <![CDATA[
    .str0 {stroke:#33BFFF;stroke-width:5.33;stroke-linecap:round;stroke-linejoin:round;stroke-miterlimit:22.9256}
    .fil0 {fill:none}
   ]]>
  </style>
 </defs>
 <g id="Layer_x0020_1">
  <metadata id="CorelCorpID_0Corel-Layer"/>
  <g id="_2114149056">
   <g>
    <path class="fil0 str0" d="M19.74 68.2c7.1,0.01 8.79,10.47 17.07,10.47m-17.07 -10.47c-7.1,0.01 -8.79,10.47 -17.07,10.47"/>
    <path class="fil0 str0" d="M53.89 68.2c7.1,0.01 8.79,10.47 17.07,10.47m-17.07 -10.47c-7.1,0.01 -8.79,10.47 -17.08,10.47"/>
    <path class="fil0 str0" d="M88.04 68.2c7.1,0.01 8.78,10.47 17.07,10.47m-17.07 -10.47c-7.11,0.01 -8.79,10.47 -17.08,10.47"/>
    <path class="fil0 str0" d="M122.18 68.2c7.11,0.01 8.79,10.47 17.08,10.47m-17.08 -10.47c-7.1,0.01 -8.78,10.47 -17.07,10.47"/>
   </g>
   <g>
    <path class="fil0 str0" d="M19.74 88.81c7.1,0.01 8.79,10.48 17.07,10.48m-17.07 -10.48c-7.1,0.01 -8.79,10.48 -17.07,10.48"/>
    <path class="fil0 str0" d="M53.89 88.81c7.1,0.01 8.79,10.48 17.07,10.48m-17.07 -10.48c-7.1,0.01 -8.79,10.48 -17.08,10.48"/>
    <path class="fil0 str0" d="M88.04 88.81c7.1,0.01 8.78,10.48 17.07,10.48m-17.07 -10.48c-7.11,0.01 -8.79,10.48 -17.08,10.48"/>
    <path class="fil0 str0" d="M122.18 88.81c7.11,0.01 8.79,10.48 17.08,10.48m-17.08 -10.48c-7.1,0.01 -8.78,10.48 -17.07,10.48"/>
   </g>
   <g>
    <path class="fil0 str0" d="M19.74 109.58c7.1,0.01 8.79,10.48 17.07,10.48m-17.07 -10.48c-7.1,0.01 -8.79,10.48 -17.07,10.48"/>
    <path class="fil0 str0" d="M53.89 109.58c7.1,0.01 8.79,10.48 17.07,10.48m-17.07 -10.48c-7.1,0.01 -8.79,10.48 -17.08,10.48"/>
    <path class="fil0 str0" d="M88.04 109.58c7.1,0.01 8.78,10.48 17.07,10.48m-17.07 -10.48c-7.11,0.01 -8.79,10.48 -17.08,10.48"/>
    <path class="fil0 str0" d="M122.18 109.58c7.11,0.01 8.79,10.48 17.08,10.48m-17.08 -10.48c-7.1,0.01 -8.78,10.48 -17.07,10.48"/>
   </g>
   <path class="fil0 str0" d="M15.84 27.85c-0.87,-33.71 44.73,-31.24 44.75,-3.85l0 47.93"/>
   <path class="fil0 str0" d="M68.85 2.66c16.17,0.41 25.98,8.13 25.82,21.1l0 48.35"/>
   <line class="fil0 str0" x1="60.59" y1="24" x2="94.67" y2= "24" />
   <line class="fil0 str0" x1="60.59" y1="45.89" x2="94.67" y2= "45.89" />
  </g>
 </g>
</svg>
